<svg viewBox="0 0 1024 1068.559" xmlns="http://www.w3.org/2000/svg"><path d="M509.774 21.333c183.186 0 331.687 148.5 331.687 331.687s-148.5 331.687-331.686 331.687c-183.186 0-331.687-148.5-331.687-331.687 0-183.186 148.5-331.687 331.687-331.687zm0 596.59c146.303 0 264.904-118.6 264.904-264.903S656.076 88.116 509.774 88.116c-146.303 0-264.904 118.602-264.904 264.904 0 146.303 118.602 264.904 264.904 264.904zm-8.237 66.56c-100.73-.108-182.347-81.792-182.347-182.538 0-100.814 81.726-182.54 182.54-182.54 3.47 0 6.92.098 10.344.29l-.475-.022-3.652 66.783c-1.918-.113-4.16-.178-6.42-.178-63.93 0-115.756 51.826-115.756 115.757s51.826 115.757 115.757 115.757c2.257 0 4.5-.065 6.726-.192l-.308.014 3.65 66.783zm8.237-298.072V319.63c63.93 0 115.757-51.826 115.757-115.757S573.706 88.115 509.775 88.115V21.33c100.814 0 182.54 81.727 182.54 182.54s-81.727 182.54-182.54 182.54zm33.39-33.39h-66.782c0-63.93-51.826-115.757-115.757-115.757S244.868 289.09 244.868 353.02h-66.783c0-100.814 81.726-182.54 182.54-182.54s182.538 81.727 182.538 182.54zm115.758 182.54c-100.814 0-182.54-81.727-182.54-182.54h66.784c0 63.93 51.826 115.757 115.757 115.757S774.68 416.95 774.68 353.02h66.783c0 100.814-81.726 182.54-182.54 182.54zm-115.757 498.643h-66.783V650.87h66.783z"/></svg>